version 1
nodes
0 "root" -1
end
skeleton
time 0
0 0 0 0 0 0 0
end
triangles
back.bmp
0 -1.500000 4.000000 8.000000 -1.000000 0.000000 -0.000000 0.125000 0.125000
0 -1.500000 4.000000 -8.000000 -1.000000 0.000000 -0.000000 0.875000 0.125000
0 -1.500000 -4.000000 -8.000000 -1.000000 0.000000 -0.000000 0.875000 0.875000
back.bmp
0 -1.500000 -4.000000 8.000000 -1.000000 0.000000 0.000000 0.125000 0.125000
0 -1.500000 4.000000 8.000000 -1.000000 0.000000 0.000000 0.875000 0.125000
0 -1.500000 -4.000000 -8.000000 -1.000000 0.000000 0.000000 0.875000 0.875000
back.bmp
0 -0.500000 -4.000000 -8.000000 1.000000 0.000000 0.000000 0.125000 0.125000
0 -0.500000 4.000000 -8.000000 1.000000 0.000000 0.000000 0.875000 0.125000
0 -0.500000 4.000000 8.000000 1.000000 0.000000 0.000000 0.875000 0.875000
back.bmp
0 -0.500000 -4.000000 -8.000000 1.000000 0.000000 0.000000 0.125000 0.125000
0 -0.500000 4.000000 8.000000 1.000000 0.000000 0.000000 0.875000 0.125000
0 -0.500000 -4.000000 8.000000 1.000000 0.000000 0.000000 0.875000 0.875000
back.bmp
0 -1.500000 -4.000000 -8.000000 0.000000 0.000000 -1.000000 0.125000 0.125000
0 -1.500000 4.000000 -8.000000 0.000000 0.000000 -1.000000 0.875000 0.125000
0 -0.500000 4.000000 -8.000000 0.000000 0.000000 -1.000000 0.875000 0.875000
back.bmp
0 -1.500000 -4.000000 -8.000000 0.000000 0.000000 -1.000000 0.125000 0.125000
0 -0.500000 4.000000 -8.000000 0.000000 0.000000 -1.000000 0.875000 0.125000
0 -0.500000 -4.000000 -8.000000 0.000000 0.000000 -1.000000 0.875000 0.875000
back.bmp
0 -1.500000 4.000000 -8.000000 0.000000 1.000000 0.000000 0.125000 0.125000
0 -1.500000 4.000000 8.000000 0.000000 1.000000 0.000000 0.875000 0.125000
0 -0.500000 4.000000 8.000000 0.000000 1.000000 0.000000 0.875000 0.875000
back.bmp
0 -1.500000 4.000000 -8.000000 0.000000 1.000000 0.000000 0.125000 0.125000
0 -0.500000 4.000000 8.000000 0.000000 1.000000 0.000000 0.875000 0.125000
0 -0.500000 4.000000 -8.000000 0.000000 1.000000 0.000000 0.875000 0.875000
back.bmp
0 -1.500000 4.000000 8.000000 0.000000 0.000000 1.000000 0.125000 0.125000
0 -1.500000 -4.000000 8.000000 0.000000 0.000000 1.000000 0.875000 0.125000
0 -0.500000 -4.000000 8.000000 0.000000 0.000000 1.000000 0.875000 0.875000
back.bmp
0 -1.500000 4.000000 8.000000 -0.000000 0.000000 1.000000 0.125000 0.125000
0 -0.500000 -4.000000 8.000000 -0.000000 0.000000 1.000000 0.875000 0.125000
0 -0.500000 4.000000 8.000000 -0.000000 0.000000 1.000000 0.875000 0.875000
back.bmp
0 -1.500000 -4.000000 8.000000 0.000000 -1.000000 0.000000 0.125000 0.125000
0 -1.500000 -4.000000 -8.000000 0.000000 -1.000000 0.000000 0.875000 0.125000
0 -0.500000 -4.000000 -8.000000 0.000000 -1.000000 0.000000 0.875000 0.875000
back.bmp
0 -1.500000 -4.000000 8.000000 0.000000 -1.000000 0.000000 0.125000 0.125000
0 -0.500000 -4.000000 -8.000000 0.000000 -1.000000 0.000000 0.875000 0.125000
0 -0.500000 -4.000000 8.000000 0.000000 -1.000000 0.000000 0.875000 0.875000
end
