version 1
nodes
0 "root" -1
end
skeleton
time 0
0 0 0 0 0 0 0
end
triangles
edge.bmp
0 -1.500000 2.000000 2.000000 -1.000000 0.000000 -0.000000 0.125000 0.125000
0 -1.500000 2.000000 -2.000000 -1.000000 0.000000 -0.000000 0.875000 0.125000
0 -1.500000 -2.000000 -2.000000 -1.000000 0.000000 -0.000000 0.875000 0.875000
edge.bmp
0 -1.500000 -2.000000 2.000000 -1.000000 0.000000 0.000000 0.125000 0.125000
0 -1.500000 2.000000 2.000000 -1.000000 0.000000 0.000000 0.875000 0.125000
0 -1.500000 -2.000000 -2.000000 -1.000000 0.000000 0.000000 0.875000 0.875000
edge.bmp
0 1.500000 -2.000000 -2.000000 0.894427 0.447214 0.000000 0.125000 0.125000
0 -0.500000 2.000000 -2.000000 0.894427 0.447214 0.000000 0.875000 0.125000
0 -0.500000 2.000000 2.000000 0.894427 0.447214 0.000000 0.875000 0.875000
edge.bmp
0 1.500000 -2.000000 -2.000000 0.894427 0.447214 -0.000000 0.125000 0.125000
0 -0.500000 2.000000 2.000000 0.894427 0.447214 -0.000000 0.875000 0.125000
0 1.500000 -2.000000 2.000000 0.894427 0.447214 -0.000000 0.875000 0.875000
edge.bmp
0 -1.500000 -2.000000 -2.000000 0.000000 0.000000 -1.000000 0.125000 0.125000
0 -1.500000 2.000000 -2.000000 0.000000 0.000000 -1.000000 0.875000 0.125000
0 -0.500000 2.000000 -2.000000 0.000000 0.000000 -1.000000 0.875000 0.875000
edge.bmp
0 -1.500000 -2.000000 -2.000000 0.000000 0.000000 -1.000000 0.125000 0.125000
0 -0.500000 2.000000 -2.000000 0.000000 0.000000 -1.000000 0.875000 0.125000
0 1.500000 -2.000000 -2.000000 0.000000 0.000000 -1.000000 0.875000 0.875000
edge.bmp
0 -1.500000 2.000000 -2.000000 0.000000 1.000000 0.000000 0.125000 0.125000
0 -1.500000 2.000000 2.000000 0.000000 1.000000 0.000000 0.875000 0.125000
0 -0.500000 2.000000 2.000000 0.000000 1.000000 0.000000 0.875000 0.875000
edge.bmp
0 -1.500000 2.000000 -2.000000 0.000000 1.000000 0.000000 0.125000 0.125000
0 -0.500000 2.000000 2.000000 0.000000 1.000000 0.000000 0.875000 0.125000
0 -0.500000 2.000000 -2.000000 0.000000 1.000000 0.000000 0.875000 0.875000
edge.bmp
0 -1.500000 2.000000 2.000000 0.000000 0.000000 1.000000 0.125000 0.125000
0 -1.500000 -2.000000 2.000000 0.000000 0.000000 1.000000 0.875000 0.125000
0 1.500000 -2.000000 2.000000 0.000000 0.000000 1.000000 0.875000 0.875000
edge.bmp
0 -1.500000 2.000000 2.000000 -0.000000 0.000000 1.000000 0.125000 0.125000
0 1.500000 -2.000000 2.000000 -0.000000 0.000000 1.000000 0.875000 0.125000
0 -0.500000 2.000000 2.000000 -0.000000 0.000000 1.000000 0.875000 0.875000
edge.bmp
0 -1.500000 -2.000000 2.000000 0.000000 -1.000000 0.000000 0.125000 0.125000
0 -1.500000 -2.000000 -2.000000 0.000000 -1.000000 0.000000 0.875000 0.125000
0 1.500000 -2.000000 -2.000000 0.000000 -1.000000 0.000000 0.875000 0.875000
edge.bmp
0 -1.500000 -2.000000 2.000000 0.000000 -1.000000 0.000000 0.125000 0.125000
0 1.500000 -2.000000 -2.000000 0.000000 -1.000000 0.000000 0.875000 0.125000
0 1.500000 -2.000000 2.000000 0.000000 -1.000000 0.000000 0.875000 0.875000
end
