version 1
nodes
0 "root" -1
1 "right" 0
2 "top" 0
3 "top_right" 1
end
skeleton
time 0
0 0 0 0 0 0 0
1 0 0 0 0 0 0
2 0 0 0 0 0 0
3 0 0 0 0 0 0
end
triangles
back.bmp
2 -1.500000 12.000000 4.000000 -1.000000 0.000000 -0.000000 0.125000 0.125000
0 -1.500000 12.000000 -4.000000 -1.000000 0.000000 -0.000000 0.875000 0.125000
1 -1.500000 -12.000000 -4.000000 -1.000000 0.000000 -0.000000 0.875000 0.875000
back.bmp
3 -1.500000 -12.000000 4.000000 -1.000000 0.000000 0.000000 0.125000 0.125000
2 -1.500000 12.000000 4.000000 -1.000000 0.000000 0.000000 0.875000 0.125000
1 -1.500000 -12.000000 -4.000000 -1.000000 0.000000 0.000000 0.875000 0.875000
back.bmp
1 -0.500000 -12.000000 -4.000000 1.000000 0.000000 0.000000 0.125000 0.125000
0 -0.500000 12.000000 -4.000000 1.000000 0.000000 0.000000 0.875000 0.125000
2 -0.500000 12.000000 4.000000 1.000000 0.000000 0.000000 0.875000 0.875000
back.bmp
1 -0.500000 -12.000000 -4.000000 1.000000 0.000000 0.000000 0.125000 0.125000
2 -0.500000 12.000000 4.000000 1.000000 0.000000 0.000000 0.875000 0.125000
3 -0.500000 -12.000000 4.000000 1.000000 0.000000 0.000000 0.875000 0.875000
back.bmp
1 -1.500000 -12.000000 -4.000000 0.000000 0.000000 -1.000000 0.125000 0.125000
0 -1.500000 12.000000 -4.000000 0.000000 0.000000 -1.000000 0.875000 0.125000
0 -0.500000 12.000000 -4.000000 0.000000 0.000000 -1.000000 0.875000 0.875000
back.bmp
1 -1.500000 -12.000000 -4.000000 0.000000 0.000000 -1.000000 0.125000 0.125000
0 -0.500000 12.000000 -4.000000 0.000000 0.000000 -1.000000 0.875000 0.125000
1 -0.500000 -12.000000 -4.000000 0.000000 0.000000 -1.000000 0.875000 0.875000
back.bmp
0 -1.500000 12.000000 -4.000000 0.000000 1.000000 0.000000 0.125000 0.125000
2 -1.500000 12.000000 4.000000 0.000000 1.000000 0.000000 0.875000 0.125000
2 -0.500000 12.000000 4.000000 0.000000 1.000000 0.000000 0.875000 0.875000
back.bmp
0 -1.500000 12.000000 -4.000000 0.000000 1.000000 0.000000 0.125000 0.125000
2 -0.500000 12.000000 4.000000 0.000000 1.000000 0.000000 0.875000 0.125000
0 -0.500000 12.000000 -4.000000 0.000000 1.000000 0.000000 0.875000 0.875000
back.bmp
2 -1.500000 12.000000 4.000000 0.000000 0.000000 1.000000 0.125000 0.125000
3 -1.500000 -12.000000 4.000000 0.000000 0.000000 1.000000 0.875000 0.125000
3 -0.500000 -12.000000 4.000000 0.000000 0.000000 1.000000 0.875000 0.875000
back.bmp
2 -1.500000 12.000000 4.000000 -0.000000 0.000000 1.000000 0.125000 0.125000
3 -0.500000 -12.000000 4.000000 -0.000000 0.000000 1.000000 0.875000 0.125000
2 -0.500000 12.000000 4.000000 -0.000000 0.000000 1.000000 0.875000 0.875000
back.bmp
3 -1.500000 -12.000000 4.000000 0.000000 -1.000000 0.000000 0.125000 0.125000
1 -1.500000 -12.000000 -4.000000 0.000000 -1.000000 0.000000 0.875000 0.125000
1 -0.500000 -12.000000 -4.000000 0.000000 -1.000000 0.000000 0.875000 0.875000
back.bmp
3 -1.500000 -12.000000 4.000000 0.000000 -1.000000 0.000000 0.125000 0.125000
1 -0.500000 -12.000000 -4.000000 0.000000 -1.000000 0.000000 0.875000 0.125000
3 -0.500000 -12.000000 4.000000 0.000000 -1.000000 0.000000 0.875000 0.875000
edge.bmp
0 -1.500000 12.000000 -4.000000 -1.000000 0.000000 -0.000000 0.125000 0.125000
0 -1.500000 12.000000 -8.000000 -1.000000 0.000000 -0.000000 0.875000 0.125000
1 -1.500000 -12.000000 -8.000000 -1.000000 0.000000 -0.000000 0.875000 0.875000
edge.bmp
1 -1.500000 -12.000000 -4.000000 -1.000000 0.000000 0.000000 0.125000 0.125000
0 -1.500000 12.000000 -4.000000 -1.000000 0.000000 0.000000 0.875000 0.125000
1 -1.500000 -12.000000 -8.000000 -1.000000 0.000000 0.000000 0.875000 0.875000
edge.bmp
1 1.500000 -12.000000 -8.000000 0.894427 -0.000000 0.447214 0.125000 0.125000
0 1.500000 12.000000 -8.000000 0.894427 -0.000000 0.447214 0.875000 0.125000
0 -0.500000 12.000000 -4.000000 0.894427 -0.000000 0.447214 0.875000 0.875000
edge.bmp
1 1.500000 -12.000000 -8.000000 0.894427 0.000000 0.447214 0.125000 0.125000
0 -0.500000 12.000000 -4.000000 0.894427 0.000000 0.447214 0.875000 0.125000
1 -0.500000 -12.000000 -4.000000 0.894427 0.000000 0.447214 0.875000 0.875000
edge.bmp
1 -1.500000 -12.000000 -8.000000 0.000000 0.000000 -1.000000 0.125000 0.125000
0 -1.500000 12.000000 -8.000000 0.000000 0.000000 -1.000000 0.875000 0.125000
0 1.500000 12.000000 -8.000000 0.000000 0.000000 -1.000000 0.875000 0.875000
edge.bmp
1 -1.500000 -12.000000 -8.000000 0.000000 0.000000 -1.000000 0.125000 0.125000
0 1.500000 12.000000 -8.000000 0.000000 0.000000 -1.000000 0.875000 0.125000
1 1.500000 -12.000000 -8.000000 0.000000 0.000000 -1.000000 0.875000 0.875000
edge.bmp
0 -1.500000 12.000000 -8.000000 0.000000 1.000000 0.000000 0.125000 0.125000
0 -1.500000 12.000000 -4.000000 0.000000 1.000000 0.000000 0.875000 0.125000
0 -0.500000 12.000000 -4.000000 0.000000 1.000000 0.000000 0.875000 0.875000
edge.bmp
0 -1.500000 12.000000 -8.000000 0.000000 1.000000 0.000000 0.125000 0.125000
0 -0.500000 12.000000 -4.000000 0.000000 1.000000 0.000000 0.875000 0.125000
0 1.500000 12.000000 -8.000000 0.000000 1.000000 0.000000 0.875000 0.875000
edge.bmp
0 -1.500000 12.000000 -4.000000 0.000000 0.000000 1.000000 0.125000 0.125000
1 -1.500000 -12.000000 -4.000000 0.000000 0.000000 1.000000 0.875000 0.125000
1 -0.500000 -12.000000 -4.000000 0.000000 0.000000 1.000000 0.875000 0.875000
edge.bmp
0 -1.500000 12.000000 -4.000000 -0.000000 0.000000 1.000000 0.125000 0.125000
1 -0.500000 -12.000000 -4.000000 -0.000000 0.000000 1.000000 0.875000 0.125000
0 -0.500000 12.000000 -4.000000 -0.000000 0.000000 1.000000 0.875000 0.875000
edge.bmp
1 -1.500000 -12.000000 -4.000000 0.000000 -1.000000 0.000000 0.125000 0.125000
1 -1.500000 -12.000000 -8.000000 0.000000 -1.000000 0.000000 0.875000 0.125000
1 1.500000 -12.000000 -8.000000 0.000000 -1.000000 0.000000 0.875000 0.875000
edge.bmp
1 -1.500000 -12.000000 -4.000000 0.000000 -1.000000 0.000000 0.125000 0.125000
1 1.500000 -12.000000 -8.000000 0.000000 -1.000000 0.000000 0.875000 0.125000
1 -0.500000 -12.000000 -4.000000 0.000000 -1.000000 0.000000 0.875000 0.875000
edge.bmp
2 -1.500000 12.000000 8.000000 -1.000000 0.000000 -0.000000 0.125000 0.125000
2 -1.500000 12.000000 4.000000 -1.000000 0.000000 -0.000000 0.875000 0.125000
3 -1.500000 -12.000000 4.000000 -1.000000 0.000000 -0.000000 0.875000 0.875000
edge.bmp
3 -1.500000 -12.000000 8.000000 -1.000000 0.000000 0.000000 0.125000 0.125000
2 -1.500000 12.000000 8.000000 -1.000000 0.000000 0.000000 0.875000 0.125000
3 -1.500000 -12.000000 4.000000 -1.000000 0.000000 0.000000 0.875000 0.875000
edge.bmp
3 -0.500000 -12.000000 4.000000 0.894427 0.000000 -0.447214 0.125000 0.125000
2 -0.500000 12.000000 4.000000 0.894427 0.000000 -0.447214 0.875000 0.125000
2 1.500000 12.000000 8.000000 0.894427 0.000000 -0.447214 0.875000 0.875000
edge.bmp
3 -0.500000 -12.000000 4.000000 0.894427 0.000000 -0.447214 0.125000 0.125000
2 1.500000 12.000000 8.000000 0.894427 0.000000 -0.447214 0.875000 0.125000
3 1.500000 -12.000000 8.000000 0.894427 0.000000 -0.447214 0.875000 0.875000
edge.bmp
3 -1.500000 -12.000000 4.000000 0.000000 0.000000 -1.000000 0.125000 0.125000
2 -1.500000 12.000000 4.000000 0.000000 0.000000 -1.000000 0.875000 0.125000
2 -0.500000 12.000000 4.000000 0.000000 0.000000 -1.000000 0.875000 0.875000
edge.bmp
3 -1.500000 -12.000000 4.000000 0.000000 0.000000 -1.000000 0.125000 0.125000
2 -0.500000 12.000000 4.000000 0.000000 0.000000 -1.000000 0.875000 0.125000
3 -0.500000 -12.000000 4.000000 0.000000 0.000000 -1.000000 0.875000 0.875000
edge.bmp
2 -1.500000 12.000000 4.000000 0.000000 1.000000 0.000000 0.125000 0.125000
2 -1.500000 12.000000 8.000000 0.000000 1.000000 0.000000 0.875000 0.125000
2 1.500000 12.000000 8.000000 0.000000 1.000000 0.000000 0.875000 0.875000
edge.bmp
2 -1.500000 12.000000 4.000000 0.000000 1.000000 0.000000 0.125000 0.125000
2 1.500000 12.000000 8.000000 0.000000 1.000000 0.000000 0.875000 0.125000
2 -0.500000 12.000000 4.000000 0.000000 1.000000 0.000000 0.875000 0.875000
edge.bmp
2 -1.500000 12.000000 8.000000 0.000000 0.000000 1.000000 0.125000 0.125000
3 -1.500000 -12.000000 8.000000 0.000000 0.000000 1.000000 0.875000 0.125000
3 1.500000 -12.000000 8.000000 0.000000 0.000000 1.000000 0.875000 0.875000
edge.bmp
2 -1.500000 12.000000 8.000000 -0.000000 0.000000 1.000000 0.125000 0.125000
3 1.500000 -12.000000 8.000000 -0.000000 0.000000 1.000000 0.875000 0.125000
2 1.500000 12.000000 8.000000 -0.000000 0.000000 1.000000 0.875000 0.875000
edge.bmp
3 -1.500000 -12.000000 8.000000 0.000000 -1.000000 0.000000 0.125000 0.125000
3 -1.500000 -12.000000 4.000000 0.000000 -1.000000 0.000000 0.875000 0.125000
3 -0.500000 -12.000000 4.000000 0.000000 -1.000000 0.000000 0.875000 0.875000
edge.bmp
3 -1.500000 -12.000000 8.000000 0.000000 -1.000000 0.000000 0.125000 0.125000
3 -0.500000 -12.000000 4.000000 0.000000 -1.000000 0.000000 0.875000 0.125000
3 1.500000 -12.000000 8.000000 0.000000 -1.000000 0.000000 0.875000 0.875000
edge.bmp
2 -1.500000 16.000000 4.000000 -1.000000 0.000000 -0.000000 0.125000 0.125000
0 -1.500000 16.000000 -4.000000 -1.000000 0.000000 -0.000000 0.875000 0.125000
0 -1.500000 12.000000 -4.000000 -1.000000 0.000000 -0.000000 0.875000 0.875000
edge.bmp
2 -1.500000 12.000000 4.000000 -1.000000 0.000000 0.000000 0.125000 0.125000
2 -1.500000 16.000000 4.000000 -1.000000 0.000000 0.000000 0.875000 0.125000
0 -1.500000 12.000000 -4.000000 -1.000000 0.000000 0.000000 0.875000 0.875000
edge.bmp
0 -0.500000 12.000000 -4.000000 0.894427 -0.447214 0.000000 0.125000 0.125000
0 1.500000 16.000000 -4.000000 0.894427 -0.447214 0.000000 0.875000 0.125000
2 1.500000 16.000000 4.000000 0.894427 -0.447214 0.000000 0.875000 0.875000
edge.bmp
0 -0.500000 12.000000 -4.000000 0.894427 -0.447214 0.000000 0.125000 0.125000
2 1.500000 16.000000 4.000000 0.894427 -0.447214 0.000000 0.875000 0.125000
2 -0.500000 12.000000 4.000000 0.894427 -0.447214 0.000000 0.875000 0.875000
edge.bmp
0 -1.500000 12.000000 -4.000000 0.000000 0.000000 -1.000000 0.125000 0.125000
0 -1.500000 16.000000 -4.000000 0.000000 0.000000 -1.000000 0.875000 0.125000
0 1.500000 16.000000 -4.000000 0.000000 0.000000 -1.000000 0.875000 0.875000
edge.bmp
0 -1.500000 12.000000 -4.000000 0.000000 0.000000 -1.000000 0.125000 0.125000
0 1.500000 16.000000 -4.000000 0.000000 0.000000 -1.000000 0.875000 0.125000
0 -0.500000 12.000000 -4.000000 0.000000 0.000000 -1.000000 0.875000 0.875000
edge.bmp
0 -1.500000 16.000000 -4.000000 0.000000 1.000000 0.000000 0.125000 0.125000
2 -1.500000 16.000000 4.000000 0.000000 1.000000 0.000000 0.875000 0.125000
2 1.500000 16.000000 4.000000 0.000000 1.000000 0.000000 0.875000 0.875000
edge.bmp
0 -1.500000 16.000000 -4.000000 0.000000 1.000000 0.000000 0.125000 0.125000
2 1.500000 16.000000 4.000000 0.000000 1.000000 0.000000 0.875000 0.125000
0 1.500000 16.000000 -4.000000 0.000000 1.000000 0.000000 0.875000 0.875000
edge.bmp
2 -1.500000 16.000000 4.000000 0.000000 0.000000 1.000000 0.125000 0.125000
2 -1.500000 12.000000 4.000000 0.000000 0.000000 1.000000 0.875000 0.125000
2 -0.500000 12.000000 4.000000 0.000000 0.000000 1.000000 0.875000 0.875000
edge.bmp
2 -1.500000 16.000000 4.000000 -0.000000 0.000000 1.000000 0.125000 0.125000
2 -0.500000 12.000000 4.000000 -0.000000 0.000000 1.000000 0.875000 0.125000
2 1.500000 16.000000 4.000000 -0.000000 0.000000 1.000000 0.875000 0.875000
edge.bmp
2 -1.500000 12.000000 4.000000 0.000000 -1.000000 0.000000 0.125000 0.125000
0 -1.500000 12.000000 -4.000000 0.000000 -1.000000 0.000000 0.875000 0.125000
0 -0.500000 12.000000 -4.000000 0.000000 -1.000000 0.000000 0.875000 0.875000
edge.bmp
2 -1.500000 12.000000 4.000000 0.000000 -1.000000 0.000000 0.125000 0.125000
0 -0.500000 12.000000 -4.000000 0.000000 -1.000000 0.000000 0.875000 0.125000
2 -0.500000 12.000000 4.000000 0.000000 -1.000000 0.000000 0.875000 0.875000
edge.bmp
3 -1.500000 -12.000000 4.000000 -1.000000 0.000000 -0.000000 0.125000 0.125000
1 -1.500000 -12.000000 -4.000000 -1.000000 0.000000 -0.000000 0.875000 0.125000
1 -1.500000 -16.000000 -4.000000 -1.000000 0.000000 -0.000000 0.875000 0.875000
edge.bmp
3 -1.500000 -16.000000 4.000000 -1.000000 0.000000 0.000000 0.125000 0.125000
3 -1.500000 -12.000000 4.000000 -1.000000 0.000000 0.000000 0.875000 0.125000
1 -1.500000 -16.000000 -4.000000 -1.000000 0.000000 0.000000 0.875000 0.875000
edge.bmp
1 1.500000 -16.000000 -4.000000 0.894427 0.447214 0.000000 0.125000 0.125000
1 -0.500000 -12.000000 -4.000000 0.894427 0.447214 0.000000 0.875000 0.125000
3 -0.500000 -12.000000 4.000000 0.894427 0.447214 0.000000 0.875000 0.875000
edge.bmp
1 1.500000 -16.000000 -4.000000 0.894427 0.447214 -0.000000 0.125000 0.125000
3 -0.500000 -12.000000 4.000000 0.894427 0.447214 -0.000000 0.875000 0.125000
3 1.500000 -16.000000 4.000000 0.894427 0.447214 -0.000000 0.875000 0.875000
edge.bmp
1 -1.500000 -16.000000 -4.000000 0.000000 0.000000 -1.000000 0.125000 0.125000
1 -1.500000 -12.000000 -4.000000 0.000000 0.000000 -1.000000 0.875000 0.125000
1 -0.500000 -12.000000 -4.000000 0.000000 0.000000 -1.000000 0.875000 0.875000
edge.bmp
1 -1.500000 -16.000000 -4.000000 0.000000 0.000000 -1.000000 0.125000 0.125000
1 -0.500000 -12.000000 -4.000000 0.000000 0.000000 -1.000000 0.875000 0.125000
1 1.500000 -16.000000 -4.000000 0.000000 0.000000 -1.000000 0.875000 0.875000
edge.bmp
1 -1.500000 -12.000000 -4.000000 0.000000 1.000000 0.000000 0.125000 0.125000
3 -1.500000 -12.000000 4.000000 0.000000 1.000000 0.000000 0.875000 0.125000
3 -0.500000 -12.000000 4.000000 0.000000 1.000000 0.000000 0.875000 0.875000
edge.bmp
1 -1.500000 -12.000000 -4.000000 0.000000 1.000000 0.000000 0.125000 0.125000
3 -0.500000 -12.000000 4.000000 0.000000 1.000000 0.000000 0.875000 0.125000
1 -0.500000 -12.000000 -4.000000 0.000000 1.000000 0.000000 0.875000 0.875000
edge.bmp
3 -1.500000 -12.000000 4.000000 0.000000 0.000000 1.000000 0.125000 0.125000
3 -1.500000 -16.000000 4.000000 0.000000 0.000000 1.000000 0.875000 0.125000
3 1.500000 -16.000000 4.000000 0.000000 0.000000 1.000000 0.875000 0.875000
edge.bmp
3 -1.500000 -12.000000 4.000000 -0.000000 0.000000 1.000000 0.125000 0.125000
3 1.500000 -16.000000 4.000000 -0.000000 0.000000 1.000000 0.875000 0.125000
3 -0.500000 -12.000000 4.000000 -0.000000 0.000000 1.000000 0.875000 0.875000
edge.bmp
3 -1.500000 -16.000000 4.000000 0.000000 -1.000000 0.000000 0.125000 0.125000
1 -1.500000 -16.000000 -4.000000 0.000000 -1.000000 0.000000 0.875000 0.125000
1 1.500000 -16.000000 -4.000000 0.000000 -1.000000 0.000000 0.875000 0.875000
edge.bmp
3 -1.500000 -16.000000 4.000000 0.000000 -1.000000 0.000000 0.125000 0.125000
1 1.500000 -16.000000 -4.000000 0.000000 -1.000000 0.000000 0.875000 0.125000
3 1.500000 -16.000000 4.000000 0.000000 -1.000000 0.000000 0.875000 0.875000
edge.bmp
1 -1.500000 -12.000000 -4.000000 -1.000000 0.000000 -0.000000 0.125000 0.125000
1 -1.500000 -12.000000 -8.000000 -1.000000 0.000000 -0.000000 0.875000 0.125000
1 -1.500000 -16.000000 -8.000000 -1.000000 0.000000 -0.000000 0.875000 0.875000
edge.bmp
1 -1.500000 -16.000000 -4.000000 -1.000000 0.000000 0.000000 0.125000 0.125000
1 -1.500000 -12.000000 -4.000000 -1.000000 0.000000 0.000000 0.875000 0.125000
1 -1.500000 -16.000000 -8.000000 -1.000000 0.000000 0.000000 0.875000 0.875000
edge.bmp
1 -0.500000 -12.000000 -4.000000 0.894427 0.447214 0.000000 0.125000 0.125000
1 1.500000 -16.000000 -4.000000 0.894427 0.447214 0.000000 0.875000 0.125000
1 1.500000 -16.000000 -8.000000 0.894427 0.447214 0.000000 0.875000 0.875000
edge.bmp
1 -0.500000 -12.000000 -4.000000 0.894427 0.000000 0.447214 0.125000 0.125000
1 1.500000 -16.000000 -8.000000 0.894427 0.000000 0.447214 0.875000 0.125000
1 1.500000 -12.000000 -8.000000 0.894427 0.000000 0.447214 0.875000 0.875000
edge.bmp
1 -1.500000 -16.000000 -8.000000 0.000000 0.000000 -1.000000 0.125000 0.125000
1 -1.500000 -12.000000 -8.000000 0.000000 0.000000 -1.000000 0.875000 0.125000
1 1.500000 -12.000000 -8.000000 0.000000 0.000000 -1.000000 0.875000 0.875000
edge.bmp
1 -1.500000 -16.000000 -8.000000 0.000000 0.000000 -1.000000 0.125000 0.125000
1 1.500000 -12.000000 -8.000000 0.000000 0.000000 -1.000000 0.875000 0.125000
1 1.500000 -16.000000 -8.000000 0.000000 0.000000 -1.000000 0.875000 0.875000
edge.bmp
1 -1.500000 -12.000000 -8.000000 0.000000 1.000000 0.000000 0.125000 0.125000
1 -1.500000 -12.000000 -4.000000 0.000000 1.000000 0.000000 0.875000 0.125000
1 -0.500000 -12.000000 -4.000000 0.000000 1.000000 0.000000 0.875000 0.875000
edge.bmp
1 -1.500000 -12.000000 -8.000000 0.000000 1.000000 0.000000 0.125000 0.125000
1 -0.500000 -12.000000 -4.000000 0.000000 1.000000 0.000000 0.875000 0.125000
1 1.500000 -12.000000 -8.000000 0.000000 1.000000 0.000000 0.875000 0.875000
edge.bmp
1 -1.500000 -12.000000 -4.000000 0.000000 0.000000 1.000000 0.125000 0.125000
1 -1.500000 -16.000000 -4.000000 0.000000 0.000000 1.000000 0.875000 0.125000
1 1.500000 -16.000000 -4.000000 0.000000 0.000000 1.000000 0.875000 0.875000
edge.bmp
1 -1.500000 -12.000000 -4.000000 -0.000000 0.000000 1.000000 0.125000 0.125000
1 1.500000 -16.000000 -4.000000 -0.000000 0.000000 1.000000 0.875000 0.125000
1 -0.500000 -12.000000 -4.000000 -0.000000 0.000000 1.000000 0.875000 0.875000
edge.bmp
1 -1.500000 -16.000000 -4.000000 0.000000 -1.000000 0.000000 0.125000 0.125000
1 -1.500000 -16.000000 -8.000000 0.000000 -1.000000 0.000000 0.875000 0.125000
1 1.500000 -16.000000 -8.000000 0.000000 -1.000000 0.000000 0.875000 0.875000
edge.bmp
1 -1.500000 -16.000000 -4.000000 0.000000 -1.000000 0.000000 0.125000 0.125000
1 1.500000 -16.000000 -8.000000 0.000000 -1.000000 0.000000 0.875000 0.125000
1 1.500000 -16.000000 -4.000000 0.000000 -1.000000 0.000000 0.875000 0.875000
edge.bmp
3 -1.500000 -12.000000 8.000000 -1.000000 0.000000 -0.000000 0.125000 0.125000
3 -1.500000 -12.000000 4.000000 -1.000000 0.000000 -0.000000 0.875000 0.125000
3 -1.500000 -16.000000 4.000000 -1.000000 0.000000 -0.000000 0.875000 0.875000
edge.bmp
3 -1.500000 -16.000000 8.000000 -1.000000 0.000000 0.000000 0.125000 0.125000
3 -1.500000 -12.000000 8.000000 -1.000000 0.000000 0.000000 0.875000 0.125000
3 -1.500000 -16.000000 4.000000 -1.000000 0.000000 0.000000 0.875000 0.875000
edge.bmp
3 -0.500000 -12.000000 4.000000 0.894427 0.000000 -0.447214 0.125000 0.125000
3 1.500000 -12.000000 8.000000 0.894427 0.000000 -0.447214 0.875000 0.125000
3 1.500000 -16.000000 8.000000 0.894427 0.000000 -0.447214 0.875000 0.875000
edge.bmp
3 -0.500000 -12.000000 4.000000 0.894427 0.447214 0.000000 0.125000 0.125000
3 1.500000 -16.000000 8.000000 0.894427 0.447214 0.000000 0.875000 0.125000
3 1.500000 -16.000000 4.000000 0.894427 0.447214 0.000000 0.875000 0.875000
edge.bmp
3 -1.500000 -16.000000 4.000000 0.000000 0.000000 -1.000000 0.125000 0.125000
3 -1.500000 -12.000000 4.000000 0.000000 0.000000 -1.000000 0.875000 0.125000
3 -0.500000 -12.000000 4.000000 0.000000 0.000000 -1.000000 0.875000 0.875000
edge.bmp
3 -1.500000 -16.000000 4.000000 0.000000 0.000000 -1.000000 0.125000 0.125000
3 -0.500000 -12.000000 4.000000 0.000000 0.000000 -1.000000 0.875000 0.125000
3 1.500000 -16.000000 4.000000 0.000000 0.000000 -1.000000 0.875000 0.875000
edge.bmp
3 -1.500000 -12.000000 4.000000 0.000000 1.000000 0.000000 0.125000 0.125000
3 -1.500000 -12.000000 8.000000 0.000000 1.000000 0.000000 0.875000 0.125000
3 1.500000 -12.000000 8.000000 0.000000 1.000000 0.000000 0.875000 0.875000
edge.bmp
3 -1.500000 -12.000000 4.000000 0.000000 1.000000 0.000000 0.125000 0.125000
3 1.500000 -12.000000 8.000000 0.000000 1.000000 0.000000 0.875000 0.125000
3 -0.500000 -12.000000 4.000000 0.000000 1.000000 0.000000 0.875000 0.875000
edge.bmp
3 -1.500000 -12.000000 8.000000 0.000000 0.000000 1.000000 0.125000 0.125000
3 -1.500000 -16.000000 8.000000 0.000000 0.000000 1.000000 0.875000 0.125000
3 1.500000 -16.000000 8.000000 0.000000 0.000000 1.000000 0.875000 0.875000
edge.bmp
3 -1.500000 -12.000000 8.000000 -0.000000 0.000000 1.000000 0.125000 0.125000
3 1.500000 -16.000000 8.000000 -0.000000 0.000000 1.000000 0.875000 0.125000
3 1.500000 -12.000000 8.000000 -0.000000 0.000000 1.000000 0.875000 0.875000
edge.bmp
3 -1.500000 -16.000000 8.000000 0.000000 -1.000000 0.000000 0.125000 0.125000
3 -1.500000 -16.000000 4.000000 0.000000 -1.000000 0.000000 0.875000 0.125000
3 1.500000 -16.000000 4.000000 0.000000 -1.000000 0.000000 0.875000 0.875000
edge.bmp
3 -1.500000 -16.000000 8.000000 0.000000 -1.000000 0.000000 0.125000 0.125000
3 1.500000 -16.000000 4.000000 0.000000 -1.000000 0.000000 0.875000 0.125000
3 1.500000 -16.000000 8.000000 0.000000 -1.000000 0.000000 0.875000 0.875000
edge.bmp
0 -1.500000 16.000000 -4.000000 -1.000000 0.000000 -0.000000 0.125000 0.125000
0 -1.500000 16.000000 -8.000000 -1.000000 0.000000 -0.000000 0.875000 0.125000
0 -1.500000 12.000000 -8.000000 -1.000000 0.000000 -0.000000 0.875000 0.875000
edge.bmp
0 -1.500000 12.000000 -4.000000 -1.000000 0.000000 0.000000 0.125000 0.125000
0 -1.500000 16.000000 -4.000000 -1.000000 0.000000 0.000000 0.875000 0.125000
0 -1.500000 12.000000 -8.000000 -1.000000 0.000000 0.000000 0.875000 0.875000
edge.bmp
0 -0.500000 12.000000 -4.000000 0.894427 0.000000 0.447214 0.125000 0.125000
0 1.500000 12.000000 -8.000000 0.894427 0.000000 0.447214 0.875000 0.125000
0 1.500000 16.000000 -8.000000 0.894427 0.000000 0.447214 0.875000 0.875000
edge.bmp
0 -0.500000 12.000000 -4.000000 0.894427 -0.447214 0.000000 0.125000 0.125000
0 1.500000 16.000000 -8.000000 0.894427 -0.447214 0.000000 0.875000 0.125000
0 1.500000 16.000000 -4.000000 0.894427 -0.447214 0.000000 0.875000 0.875000
edge.bmp
0 -1.500000 12.000000 -8.000000 0.000000 0.000000 -1.000000 0.125000 0.125000
0 -1.500000 16.000000 -8.000000 0.000000 0.000000 -1.000000 0.875000 0.125000
0 1.500000 16.000000 -8.000000 0.000000 0.000000 -1.000000 0.875000 0.875000
edge.bmp
0 -1.500000 12.000000 -8.000000 0.000000 0.000000 -1.000000 0.125000 0.125000
0 1.500000 16.000000 -8.000000 0.000000 0.000000 -1.000000 0.875000 0.125000
0 1.500000 12.000000 -8.000000 0.000000 0.000000 -1.000000 0.875000 0.875000
edge.bmp
0 -1.500000 16.000000 -8.000000 0.000000 1.000000 0.000000 0.125000 0.125000
0 -1.500000 16.000000 -4.000000 0.000000 1.000000 0.000000 0.875000 0.125000
0 1.500000 16.000000 -4.000000 0.000000 1.000000 0.000000 0.875000 0.875000
edge.bmp
0 -1.500000 16.000000 -8.000000 0.000000 1.000000 0.000000 0.125000 0.125000
0 1.500000 16.000000 -4.000000 0.000000 1.000000 0.000000 0.875000 0.125000
0 1.500000 16.000000 -8.000000 0.000000 1.000000 0.000000 0.875000 0.875000
edge.bmp
0 -1.500000 16.000000 -4.000000 0.000000 0.000000 1.000000 0.125000 0.125000
0 -1.500000 12.000000 -4.000000 0.000000 0.000000 1.000000 0.875000 0.125000
0 -0.500000 12.000000 -4.000000 0.000000 0.000000 1.000000 0.875000 0.875000
edge.bmp
0 -1.500000 16.000000 -4.000000 -0.000000 0.000000 1.000000 0.125000 0.125000
0 -0.500000 12.000000 -4.000000 -0.000000 0.000000 1.000000 0.875000 0.125000
0 1.500000 16.000000 -4.000000 -0.000000 0.000000 1.000000 0.875000 0.875000
edge.bmp
0 -1.500000 12.000000 -4.000000 0.000000 -1.000000 0.000000 0.125000 0.125000
0 -1.500000 12.000000 -8.000000 0.000000 -1.000000 0.000000 0.875000 0.125000
0 1.500000 12.000000 -8.000000 0.000000 -1.000000 0.000000 0.875000 0.875000
edge.bmp
0 -1.500000 12.000000 -4.000000 0.000000 -1.000000 0.000000 0.125000 0.125000
0 1.500000 12.000000 -8.000000 0.000000 -1.000000 0.000000 0.875000 0.125000
0 -0.500000 12.000000 -4.000000 0.000000 -1.000000 0.000000 0.875000 0.875000
edge.bmp
2 -1.500000 16.000000 8.000000 -1.000000 0.000000 -0.000000 0.125000 0.125000
2 -1.500000 16.000000 4.000000 -1.000000 0.000000 -0.000000 0.875000 0.125000
2 -1.500000 12.000000 4.000000 -1.000000 0.000000 -0.000000 0.875000 0.875000
edge.bmp
2 -1.500000 12.000000 8.000000 -1.000000 0.000000 0.000000 0.125000 0.125000
2 -1.500000 16.000000 8.000000 -1.000000 0.000000 0.000000 0.875000 0.125000
2 -1.500000 12.000000 4.000000 -1.000000 0.000000 0.000000 0.875000 0.875000
edge.bmp
2 -0.500000 12.000000 4.000000 0.894427 -0.447214 0.000000 0.125000 0.125000
2 1.500000 16.000000 4.000000 0.894427 -0.447214 0.000000 0.875000 0.125000
2 1.500000 16.000000 8.000000 0.894427 -0.447214 0.000000 0.875000 0.875000
edge.bmp
2 -0.500000 12.000000 4.000000 0.894427 0.000000 -0.447214 0.125000 0.125000
2 1.500000 16.000000 8.000000 0.894427 0.000000 -0.447214 0.875000 0.125000
2 1.500000 12.000000 8.000000 0.894427 0.000000 -0.447214 0.875000 0.875000
edge.bmp
2 -1.500000 12.000000 4.000000 0.000000 0.000000 -1.000000 0.125000 0.125000
2 -1.500000 16.000000 4.000000 0.000000 0.000000 -1.000000 0.875000 0.125000
2 1.500000 16.000000 4.000000 0.000000 0.000000 -1.000000 0.875000 0.875000
edge.bmp
2 -1.500000 12.000000 4.000000 0.000000 0.000000 -1.000000 0.125000 0.125000
2 1.500000 16.000000 4.000000 0.000000 0.000000 -1.000000 0.875000 0.125000
2 -0.500000 12.000000 4.000000 0.000000 0.000000 -1.000000 0.875000 0.875000
edge.bmp
2 -1.500000 16.000000 4.000000 0.000000 1.000000 0.000000 0.125000 0.125000
2 -1.500000 16.000000 8.000000 0.000000 1.000000 0.000000 0.875000 0.125000
2 1.500000 16.000000 8.000000 0.000000 1.000000 0.000000 0.875000 0.875000
edge.bmp
2 -1.500000 16.000000 4.000000 0.000000 1.000000 0.000000 0.125000 0.125000
2 1.500000 16.000000 8.000000 0.000000 1.000000 0.000000 0.875000 0.125000
2 1.500000 16.000000 4.000000 0.000000 1.000000 0.000000 0.875000 0.875000
edge.bmp
2 -1.500000 16.000000 8.000000 0.000000 0.000000 1.000000 0.125000 0.125000
2 -1.500000 12.000000 8.000000 0.000000 0.000000 1.000000 0.875000 0.125000
2 1.500000 12.000000 8.000000 0.000000 0.000000 1.000000 0.875000 0.875000
edge.bmp
2 -1.500000 16.000000 8.000000 -0.000000 0.000000 1.000000 0.125000 0.125000
2 1.500000 12.000000 8.000000 -0.000000 0.000000 1.000000 0.875000 0.125000
2 1.500000 16.000000 8.000000 -0.000000 0.000000 1.000000 0.875000 0.875000
edge.bmp
2 -1.500000 12.000000 8.000000 0.000000 -1.000000 0.000000 0.125000 0.125000
2 -1.500000 12.000000 4.000000 0.000000 -1.000000 0.000000 0.875000 0.125000
2 -0.500000 12.000000 4.000000 0.000000 -1.000000 0.000000 0.875000 0.875000
edge.bmp
2 -1.500000 12.000000 8.000000 0.000000 -1.000000 0.000000 0.125000 0.125000
2 -0.500000 12.000000 4.000000 0.000000 -1.000000 0.000000 0.875000 0.125000
2 1.500000 12.000000 8.000000 0.000000 -1.000000 0.000000 0.875000 0.875000
end
